<?xml version="1.0" encoding="utf-8"?><!DOCTYPE svg PUBLIC "-//W3C//DTD SVG 1.1//EN" "http://www.w3.org/Graphics/SVG/1.1/DTD/svg11.dtd"><svg xmlns="http://www.w3.org/2000/svg" xmlns:xlink="http://www.w3.org/1999/xlink"><defs><svg viewBox="-4 -4 24 24" id="home" xmlns="http://www.w3.org/2000/svg"><path d="M16 9.226l-8-6.21-8 6.21V6.694l8-6.21 8 6.21zM14 9v6h-4v-4H6v4H2V9l6-4.5z"/></svg><svg viewBox="-4 -4 25 24" id="library" xmlns="http://www.w3.org/2000/svg"><path d="M16 15v-1h-1V8h1V7h-3v1h1v6h-3V8h1V7H9v1h1v6H7V8h1V7H5v1h1v6H3V8h1V7H1v1h1v6H1v1H0v1h17v-1h-1zM8 0h1l8 5v1H0V5l8-5z"/></svg><svg viewBox="-4 -4 24 24" id="tv" xmlns="http://www.w3.org/2000/svg"><path d="M15.331 4.502a49.408 49.408 0 0 0-4.407-.425L13.5 1.501l-1-1L8.991 4.01A54.24 54.24 0 0 0 8 4.001l-4-4-1 1 3.034 3.034a50.304 50.304 0 0 0-5.365.467C.239 6.185 0 8.045 0 10s.239 3.815.669 5.498C2.913 15.821 5.393 16 8 16s5.087-.179 7.331-.502c.43-1.683.669-3.543.669-5.498s-.239-3.815-.669-5.498zm-1.833 9.164C11.815 13.881 9.955 14 8 14s-3.815-.119-5.498-.334C2.179 12.544 2 11.304 2 10s.179-2.543.502-3.666C4.185 6.119 6.045 6 8 6s3.815.119 5.498.334C13.821 7.456 14 8.696 14 10s-.179 2.543-.502 3.666z"/></svg><svg viewBox="-4 -4 24 24" id="twitter" xmlns="http://www.w3.org/2000/svg"><path d="M16 3.538a6.461 6.461 0 0 1-1.884.516 3.301 3.301 0 0 0 1.444-1.816 6.607 6.607 0 0 1-2.084.797 3.28 3.28 0 0 0-2.397-1.034 3.28 3.28 0 0 0-3.197 4.028 9.321 9.321 0 0 1-6.766-3.431 3.284 3.284 0 0 0 1.015 4.381A3.301 3.301 0 0 1 .643 6.57v.041A3.283 3.283 0 0 0 3.277 9.83a3.291 3.291 0 0 1-1.485.057 3.293 3.293 0 0 0 3.066 2.281 6.586 6.586 0 0 1-4.862 1.359 9.286 9.286 0 0 0 5.034 1.475c6.037 0 9.341-5.003 9.341-9.341 0-.144-.003-.284-.009-.425a6.59 6.59 0 0 0 1.637-1.697z"/></svg></defs></svg>